<?xml version="1.0" encoding="iso-8859-1"?>
<!-- Generator: Adobe Illustrator 19.0.0, SVG Export Plug-In . SVG Version: 6.00 Build 0)  -->
<svg version="1.1" class="topTen" xmlns="http://www.w3.org/2000/svg" xmlns:xlink="http://www.w3.org/1999/xlink" x="0px" y="0px"
	 viewBox="0 0 362.84 362.84" style="enable-background:new 0 0 362.84 362.84;" xml:space="preserve">
<g>
	<g>
		<path d="M18.84,141v180.68c0.088,22.696,18.464,41.072,41.16,41.16h242.8c22.696-0.088,41.072-18.464,41.16-41.16V141H18.84z
			 M286.8,239.12c-0.301,2.601-0.769,5.179-1.4,7.72c-5,21.36-17.88,38.6-36,53.4s-40.48,25.96-65.76,36.4
			c-1.383,0.573-2.937,0.573-4.32,0c-25.28-10.44-48-22.16-65.76-36.4s-31.08-32-36-53.4c-5.585-20.826,0.379-43.049,15.64-58.28
			l-0.08-0.12c23.558-23.586,61.776-23.608,85.362-0.049c1.009,1.008,1.983,2.052,2.918,3.129
			c21.786-25.203,59.878-27.972,85.081-6.186C281.913,198.674,289.557,218.909,286.8,239.12z"/>
	</g>
</g>
<g>
	<g>
		<path d="M92.158,0.882C82.563,1.328,74.885,9.005,74.44,18.6v26.84c-0.018,10.25,8.277,18.574,18.528,18.592
			c4.951,0.009,9.701-1.962,13.192-5.472v0.04c3.495-3.486,5.453-8.224,5.44-13.16V18.6C111.124,8.339,102.419,0.406,92.158,0.882z"
			/>
	</g>
</g>
<g>
	<g>
		<path d="M269.76,0c-10.272,0-18.6,8.328-18.6,18.6v26.84c-0.018,10.25,8.277,18.574,18.528,18.592
			c4.951,0.009,9.701-1.962,13.192-5.472l0,0.04c3.509-3.48,5.482-8.218,5.48-13.16V18.6C288.36,8.328,280.032,0,269.76,0z"/>
	</g>
</g>
<g>
	<g>
		<path d="M226.904,182.256c-16.411-0.008-31.736,8.2-40.824,21.864c-1.712,2.629-5.23,3.372-7.859,1.661
			c-0.663-0.432-1.229-0.998-1.661-1.661c-15.05-22.518-45.504-28.572-68.022-13.522C91.143,202.224,83.04,223.606,88.36,243.84
			l0.08-0.08v0.56c4.28,18.64,15.72,33.96,32,47.08c18.649,14.109,39.165,25.565,60.96,34.04c21.731-8.438,42.191-19.84,60.8-33.88
			c16.28-13.12,27.76-28.44,32-47.08v-0.24c0.569-2.102,0.996-4.241,1.28-6.4c0.278-2.175,0.412-4.367,0.4-6.56
			C275.893,204.218,253.966,182.269,226.904,182.256z"/>
	</g>
</g>
<g>
	<g>
		<path d="M302.8,37.72h-3.04v7.72c0,16.569-13.431,30-30,30s-30-13.431-30-30v-7.72H123v7.72c0,16.569-13.431,30-30,30
			s-30-13.431-30-30v-7.72h-3.04c-22.695,0.11-41.054,18.504-41.12,41.2v50.52H344V78.92C343.934,56.193,325.527,37.786,302.8,37.72
			z"/>
	</g>
</g>
<g>
</g>
<g>
</g>
<g>
</g>
<g>
</g>
<g>
</g>
<g>
</g>
<g>
</g>
<g>
</g>
<g>
</g>
<g>
</g>
<g>
</g>
<g>
</g>
<g>
</g>
<g>
</g>
<g>
</g>
</svg>
