<?xml version="1.0" encoding="iso-8859-1"?>
<!-- Generator: Adobe Illustrator 19.0.0, SVG Export Plug-In . SVG Version: 6.00 Build 0)  -->
<svg version="1.1" class="topTen" xmlns="http://www.w3.org/2000/svg" xmlns:xlink="http://www.w3.org/1999/xlink" x="0px" y="0px"
	 viewBox="0 0 362.809 362.809" style="enable-background:new 0 0 362.809 362.809;" xml:space="preserve">
<g>
	<g>
		<path d="M139.849,172.228c-7.921,0.032-15.717,1.981-22.721,5.68l-2.32,1.32c-6.406,3.887-11.871,9.147-16,15.4
			c-2.063,2.363-5.651,2.606-8.014,0.542c-0.581-0.507-1.052-1.127-1.386-1.822C74.1,171.032,43.599,165.351,21.283,180.66
			c-15.269,10.474-23.33,28.661-20.835,47.009l1.32,6.56c9.12,40.8,54.44,64.92,92.8,80.96c26.4-11.04,52.24-24.52,70.04-42.12
			l5.12-5.4c8.597-9.471,14.664-20.96,17.64-33.4l1.76-13.16C189.018,194.002,166.955,172.118,139.849,172.228z"/>
	</g>
</g>
<g>
	<g>
		<path d="M279.496,47.62c-13.575,0.018-26.94,3.358-38.928,9.728c-22.08,12-28.32,26.76-31.64,28.92
			c-2.582,1.781-6.12,1.131-7.901-1.451c-0.034-0.049-0.067-0.099-0.099-0.149C175.436,46.491,123.822,36.208,85.644,61.7
			c-26.362,17.603-40.417,48.667-36.236,80.089l4.4,19.08c15.729,1.238,30.348,8.59,40.72,20.48l3.76-4l1.52-1.4l0.76-0.68
			l1.04-0.88c25.751-21.239,63.844-17.582,85.084,8.169c10.768,13.056,15.57,30.029,13.236,46.791l-0.24,1.56
			c-2.884,16.512-10.323,31.89-21.48,44.4l27.56,12c64.32-26.76,138.48-66.2,154.08-134.44c1.994-7.217,2.99-14.673,2.96-22.16
			C362.746,84.758,325.446,47.559,279.496,47.62z"/>
	</g>
</g>
<g>
</g>
<g>
</g>
<g>
</g>
<g>
</g>
<g>
</g>
<g>
</g>
<g>
</g>
<g>
</g>
<g>
</g>
<g>
</g>
<g>
</g>
<g>
</g>
<g>
</g>
<g>
</g>
<g>
</g>
</svg>
