<?xml version="1.0" encoding="iso-8859-1"?>
<!-- Generator: Adobe Illustrator 19.0.0, SVG Export Plug-In . SVG Version: 6.00 Build 0)  -->
<svg version="1.1" class="topTen" xmlns="http://www.w3.org/2000/svg" xmlns:xlink="http://www.w3.org/1999/xlink" x="0px" y="0px"
	 viewBox="0 0 362.88 362.88" style="enable-background:new 0 0 362.88 362.88;" xml:space="preserve">
<g>
	<g>
		<path d="M228.397,113.664c-16.969-0.039-32.823,8.451-42.197,22.596c-1.712,2.629-5.23,3.372-7.859,1.661
			c-0.663-0.432-1.229-0.998-1.661-1.661c-4.624-6.948-10.889-12.649-18.24-16.6c-24.611-13.144-55.218-3.849-68.363,20.762
			c-3.892,7.287-5.937,15.417-5.957,23.678c-0.018,4.389,0.547,8.76,1.68,13v0.56c4.4,19.2,16.2,34.96,32.96,48.48
			c19.186,14.449,40.279,26.174,62.68,34.84c22.359-8.676,43.411-20.4,62.56-34.84c16.76-13.52,28.56-29.28,32.96-48.44l0.04-0.12
			c0.585-2.155,1.026-4.346,1.32-6.56c0.296-2.241,0.443-4.499,0.44-6.76C278.824,136.381,256.276,113.728,228.397,113.664z"/>
	</g>
</g>
<g>
	<g>
		<path d="M287.88,180.3c-1.823,7.958-4.787,15.61-8.8,22.72l83.6-49.44c-1.72-13.56-14.84-20.44-28.92-28
			c-2.64-1.4-5.32-2.8-8.36-4.48l-144-80L37.44,121.58c-3,1.68-5.68,3.08-8.36,4.48c-14.04,7.4-27.16,14.28-28.92,28l83.48,48.84
			c-4.013-7.11-6.977-14.762-8.8-22.72c-8.889-32.999,10.657-66.956,43.656-75.845c22.951-6.182,47.415,1.329,62.944,19.325
			c22.393-25.787,61.452-28.538,87.239-6.145c15.681,13.617,23.479,34.196,20.761,54.785
			C289.094,174.998,288.573,177.67,287.88,180.3z"/>
	</g>
</g>
<g>
	<g>
		<path d="M258.36,228.74c-2.32,2.133-4.733,4.213-7.24,6.24c-18.2,14.6-41.68,26.6-67.52,37.4c-1.383,0.573-2.937,0.573-4.32,0
			c-25.84-10.8-49.32-22.8-67.52-37.4c-2.507-2.027-4.92-4.107-7.24-6.24L0.16,290.26c1.706,17.828,16.651,31.458,34.56,31.52H328.2
			c17.909-0.062,32.854-13.692,34.56-31.52L258.36,228.74z"/>
	</g>
</g>
<g>
	<g>
		<polygon points="269.24,221.98 362.88,277.14 362.88,166.78 		"/>
	</g>
</g>
<g>
	<g>
		<polygon points="0,166.78 0,277.14 93.64,221.98 		"/>
	</g>
</g>
<g>
</g>
<g>
</g>
<g>
</g>
<g>
</g>
<g>
</g>
<g>
</g>
<g>
</g>
<g>
</g>
<g>
</g>
<g>
</g>
<g>
</g>
<g>
</g>
<g>
</g>
<g>
</g>
<g>
</g>
</svg>
